<svg xmlns:xlink="http://www.w3.org/1999/xlink"  width="60" height="36" viewBox="0 0 96 36" fill="none" xmlns="http://www.w3.org/2000/svg"><path d="M13.3759 35.8011C10.5835 35.8011 8.18757 35.2265 6.18808 34.0774C4.20007 32.9283 2.67173 31.331 1.60304 29.2855C0.534345 27.2285 0 24.8499 0 22.1494C0 19.4374 0.534345 17.0587 1.60304 15.0133C2.68322 12.9564 4.2173 11.3533 6.20531 10.2042C8.20481 9.05504 10.5893 8.48046 13.3587 8.48046C15.8063 8.48046 17.938 8.92289 19.7536 9.80773C21.5807 10.6926 23.0056 11.9451 24.0283 13.5654C25.0626 15.1742 25.6084 17.0645 25.6659 19.2363H17.7886C17.6277 17.8803 17.168 16.8174 16.4096 16.0475C15.6627 15.2776 14.6859 14.8926 13.4793 14.8926C12.5026 14.8926 11.6464 15.1684 10.911 15.72C10.1756 16.2601 9.601 17.0645 9.18732 18.1332C8.78513 19.1904 8.58402 20.5004 8.58402 22.0632C8.58402 23.626 8.78513 24.9475 9.18732 26.0277C9.601 27.0964 10.1756 27.9065 10.911 28.4581C11.6464 28.9982 12.5026 29.2683 13.4793 29.2683C14.2607 29.2683 14.9502 29.1016 15.5478 28.7684C16.1568 28.4351 16.6567 27.9468 17.0474 27.3032C17.4381 26.6482 17.6851 25.8554 17.7886 24.9245H25.6659C25.5854 27.1079 25.0396 29.0155 24.0283 30.6472C23.0286 32.279 21.6209 33.5488 19.8053 34.4566C18.0011 35.3529 15.858 35.8011 13.3759 35.8011Z" fill="currentColor"></path><path d="M37.4375 0V35.3013H29.0086V3.95302L37.4375 0Z" fill="currentColor"></path><path d="M49.2953 35.7494C47.6062 35.7494 46.1067 35.4678 44.7965 34.9047C43.4981 34.3302 42.4695 33.4683 41.7111 32.3192C40.964 31.1586 40.5906 29.7049 40.5906 27.9582C40.5906 26.4874 40.8491 25.2463 41.3664 24.2351C41.8834 23.2238 42.5961 22.4022 43.5038 21.7702C44.4115 21.1381 45.4571 20.6612 46.641 20.3395C47.8246 20.0062 49.0886 19.7822 50.4332 19.6673C51.9383 19.5293 53.1506 19.3857 54.07 19.2363C54.9894 19.0755 55.6556 18.8514 56.0694 18.5641C56.4945 18.2653 56.7073 17.8459 56.7073 17.3058V17.2196C56.7073 16.3348 56.4027 15.6511 55.7935 15.1684C55.1848 14.6858 54.3628 14.4444 53.3289 14.4444C52.2142 14.4444 51.3178 14.6858 50.6399 15.1684C49.9619 15.6511 49.5307 16.3175 49.3471 17.1679L41.5731 16.8921C41.8029 15.2833 42.3947 13.8469 43.3485 12.5829C44.314 11.3073 45.6355 10.3076 47.3129 9.58364C49.0025 8.84818 51.0306 8.48046 53.3977 8.48046C55.0869 8.48046 56.6442 8.68157 58.0688 9.08376C59.4939 9.47446 60.7348 10.049 61.7922 10.8075C62.8495 11.5544 63.6654 12.4737 64.2398 13.5654C64.8259 14.657 65.1188 15.9039 65.1188 17.3058V35.3012H57.1898V31.6125H56.9832C56.5119 32.5088 55.9084 33.2672 55.173 33.8878C54.4494 34.5083 53.5931 34.9737 52.6049 35.284C51.628 35.5942 50.525 35.7494 49.2953 35.7494ZM51.8983 30.2335C52.8059 30.2335 53.6218 30.0497 54.3458 29.682C55.0812 29.3142 55.6673 28.8086 56.1038 28.1651C56.5406 27.5101 56.7591 26.7517 56.7591 25.8898V23.3732C56.5176 23.4996 56.2247 23.6145 55.8797 23.718C55.5468 23.8214 55.1787 23.919 54.7766 24.011C54.3746 24.1029 53.9608 24.1833 53.5356 24.2523C53.1105 24.3212 52.7024 24.3845 52.3116 24.4419C51.5188 24.5683 50.8409 24.7637 50.2778 25.028C49.7261 25.2923 49.301 25.637 49.0025 26.0622C48.7149 26.4758 48.5713 26.97 48.5713 27.5446C48.5713 28.4179 48.8815 29.0844 49.502 29.5441C50.1343 30.0037 50.9327 30.2335 51.8983 30.2335Z" fill="currentColor"></path><path d="M78.9719 35.6805C77.0186 35.6805 75.2428 35.1749 73.6455 34.1637C72.0485 33.1524 70.7728 31.6356 69.819 29.6131C68.8652 27.5906 68.3883 25.0798 68.3883 22.0806C68.3883 18.9664 68.8826 16.4039 69.8707 14.3929C70.8589 12.3819 72.1517 10.8938 73.749 9.92852C75.3577 8.96323 77.0873 8.48059 78.9375 8.48059C80.3277 8.48059 81.5174 8.72191 82.5055 9.20455C83.4937 9.67571 84.3096 10.2847 84.9531 11.0317C85.5967 11.7786 86.0849 12.5543 86.4182 13.3587H86.5905V3.95302L95.0194 0V35.3013H86.6767V31.0093H86.4182C86.0619 31.8252 85.5562 32.5894 84.9014 33.3018C84.2465 34.0143 83.4249 34.5889 82.4364 35.0255C81.4599 35.4622 80.3051 35.6805 78.9719 35.6805ZM81.902 29.1132C82.925 29.1132 83.7983 28.826 84.5223 28.2514C85.246 27.6654 85.8034 26.8437 86.1941 25.7865C86.5849 24.7293 86.7802 23.4883 86.7802 22.0634C86.7802 20.6154 86.5849 19.3686 86.1941 18.3229C85.8151 17.2772 85.2577 16.4728 84.5223 15.9097C83.7983 15.3466 82.925 15.0651 81.902 15.0651C80.8564 15.0651 79.9718 15.3524 79.2477 15.927C78.5237 16.5016 77.972 17.3117 77.5929 18.3574C77.2253 19.4031 77.0412 20.6384 77.0412 22.0634C77.0412 23.4883 77.2309 24.7293 77.6103 25.7865C77.9894 26.8437 78.5354 27.6654 79.2477 28.2514C79.9718 28.826 80.8564 29.1132 81.902 29.1132Z" fill="currentColor"></path></svg>