<svg xmlns:xlink="http://www.w3.org/1999/xlink"  width="80" height="61" viewBox="0 0 158 61" fill="none" xmlns="http://www.w3.org/2000/svg"><g clip-path="url(#clip0_3861_5556)"><path fill-rule="evenodd" clip-rule="evenodd" d="M83.06 20.4302C81.7387 19.3189 79.4837 18.7639 76.2937 18.7639H69.0987V40.9989H74.4787V34.0302H76.8887C79.8137 34.0302 81.9587 33.3864 83.3237 32.0977C84.8613 30.6539 85.635 28.7314 85.635 26.3314C85.635 23.8427 84.7763 21.8752 83.06 20.4302ZM76.755 28.9989H74.4787V23.7952H76.5237C79.0112 23.7952 80.255 24.6677 80.255 26.4127C80.255 28.1352 79.0875 28.9989 76.755 28.9989ZM94.8413 18.7627H89.2312V40.9977H101.344V35.9652H94.8413V18.7627ZM112.335 18.7627L103.523 40.9977H109.563L110.718 37.7652H118.375L119.431 40.9977H125.539L116.789 18.7627H112.335ZM112.269 33.2639L114.58 25.6639L116.855 33.2639H112.269Z" fill="currentColor"></path><path fill-rule="evenodd" clip-rule="evenodd" d="M128.341 40.9977H133.953V18.7627H128.341V40.9977ZM155.738 22.9302C155.029 21.9025 154.119 21.0295 153.063 20.364C151.369 19.2965 149.058 18.764 146.131 18.764H138.739V40.9977H147.386C150.511 40.9977 153.019 39.9765 154.911 37.9315C156.804 35.8877 157.749 33.1752 157.749 29.7965C157.749 27.109 157.079 24.8202 155.738 22.9302ZM146.759 35.964H144.35V23.7965H146.793C148.509 23.7965 149.828 24.334 150.753 25.4052C151.678 26.4765 152.14 27.9965 152.14 29.964C152.14 33.964 150.346 35.964 146.759 35.964ZM23.5462 0.0952148L5.36246 4.85771L0.351204 23.144L6.61871 29.579L0.249954 35.9077L4.96621 54.274L23.0712 59.3327L29.4412 53.0027L35.7087 59.4365L53.8925 54.674L58.9025 36.3865L52.6362 29.954L59.005 23.6252L54.2887 5.25771L36.1812 0.198965L29.8137 6.52771L23.5462 0.0952148ZM12.3875 8.37521L21.9662 5.86521L26.155 10.1652L20.0462 16.2352L12.3875 8.37521ZM33.415 10.2227L37.6712 5.99396L47.2087 8.65896L39.425 16.3927L33.415 10.2227ZM6.08996 21.6427L8.72871 12.0115L16.385 19.8715L10.2775 25.9415L6.08996 21.6427ZM43.0237 20.089L50.8075 12.3527L53.29 22.0277L49.035 26.2577L43.0237 20.089ZM23.6462 19.9302L29.755 13.8602L35.7637 20.0302L29.6562 26.1002L23.6462 19.9302ZM13.8787 29.6365L19.9862 23.5665L25.9987 29.7365L19.8887 35.8065L13.8787 29.6365ZM33.2575 29.7952L39.365 23.7252L45.375 29.8952L39.2662 35.9652L33.2575 29.7952ZM5.96246 37.504L10.22 33.2727L16.2287 39.444L8.44746 47.1765L5.96246 37.504ZM23.4887 39.5015L29.5975 33.4315L35.6075 39.6015L29.5 45.6715L23.4887 39.5015ZM42.8662 39.6615L48.975 33.5915L53.1637 37.8902L50.5262 47.5215L42.8662 39.6615ZM12.0462 50.874L19.8287 43.1377L25.8412 49.3077L21.5837 53.539L12.0462 50.874ZM33.1 49.3665L39.2075 43.2965L46.865 51.1577L37.2875 53.6665L33.1 49.3665Z" fill="currentColor"></path></g><defs><clipPath id="clip0_3861_5556"><rect width="157.5" height="60" fill="white" transform="translate(0.249954 0.0952148)"></rect></clipPath></defs></svg>