<svg xmlns:xlink="http://www.w3.org/1999/xlink"  width="70" height="40" viewBox="0 0 111 40" fill="none" xmlns="http://www.w3.org/2000/svg"><path d="M6.35067 36.3739H1.03485V3.89436H6.35067V36.3739ZM18.4138 36.7604C12.519 36.7604 9.13835 33.557 9.13835 27.9705V12.4708H14.4542V27.5784C14.4542 30.8725 15.668 32.0976 18.9357 32.0976C23.1702 32.0976 24.8975 30.0689 24.8975 25.0977V12.4708H30.2133V36.3753H25.1151V32.2022C24.4189 35.4084 21.3313 36.7604 18.4138 36.7604ZM66.8563 36.3739H61.5837V20.9176C61.5837 17.7783 60.6056 16.6105 57.9728 16.6105C54.5852 16.6105 52.7951 18.6266 52.7951 22.4412V36.3739H47.5225V20.9176C47.5225 17.8578 46.5138 16.6105 44.0428 16.6105C39.6353 16.6105 38.734 21.2092 38.734 22.4412V36.3739H33.4182V12.4708H38.5163V16.651C39.4218 13.7182 42.2862 11.9476 45.1744 11.9476C48.0611 11.9476 50.4888 13.0499 51.5422 16.651C52.9556 12.9173 55.4977 11.9476 58.5393 11.9476C63.8244 11.9476 66.8563 14.5818 66.8563 19.1763V36.3739ZM77.5507 36.7604C70.209 36.7604 68.9631 32.0934 68.9631 29.7117C68.9631 26.9073 70.195 24.3805 72.8599 23.3564C74.0333 22.9225 75.1649 22.5988 76.3257 22.3658C77.3484 22.1607 78.9264 21.9431 80.0802 21.784L80.4611 21.731C82.4675 21.4519 84.6008 20.446 84.6008 19.1331C84.6008 16.9007 81.7392 16.5672 80.0328 16.5672C78.0976 16.5672 76.7345 17.0653 76.1917 17.9694C75.7048 18.8708 75.6713 19.0814 75.5471 19.867L75.4606 20.485H70.1448L70.2397 19.7023C70.428 18.148 70.7155 17.0472 71.1438 16.238C72.6144 13.3931 75.5764 11.9476 79.9449 11.9476C83.5879 11.9476 86.1718 13.0959 87.3759 14.1716C88.1168 14.8134 88.6456 15.5445 89.0348 16.4682C89.8497 18.1927 89.9166 19.3465 89.9166 20.5702V32.6291C89.9166 33.7551 90.0255 34.7178 90.2389 35.4894L90.4845 36.3753H85.0556L84.958 35.7907C84.8882 35.3777 84.8645 33.0351 84.8352 32.131C83.5809 35.4252 80.8909 36.7604 77.5507 36.7604ZM84.6008 23.6843C83.4888 24.5368 81.7448 25.0237 79.2124 25.5302C74.8495 26.3366 74.1142 27.3524 74.1142 29.328C74.1142 31.0721 75.5974 32.1548 77.986 32.1548C82.6224 32.1548 84.6008 29.9949 84.6008 24.9316V23.6843ZM101.93 8.96323C97.0309 8.96323 93.0601 4.99241 93.0601 0.09375C93.0601 4.99241 89.0893 8.96323 84.1906 8.96323C89.0893 8.96323 93.0601 12.9341 93.0601 17.8327C93.0601 12.9341 97.0309 8.96323 101.93 8.96323Z" fill="currentColor"></path></svg>