<svg xmlns:xlink="http://www.w3.org/1999/xlink"  width="80" height="32" viewBox="0 0 147 32" fill="none" xmlns="http://www.w3.org/2000/svg"><g><path d="M14.6301 30.2793C6.28531 30.2793 0 23.6746 0 15.5206C0 7.3395 5.96436 0.68042 14.6301 0.68042C19.2304 0.68042 22.4131 2.09377 24.9005 5.32818L20.8886 8.67131C19.2036 6.87743 17.1709 5.9805 14.6301 5.9805C8.98666 5.9805 5.88412 10.3021 5.88412 15.5206C5.88412 20.7392 9.28086 24.9792 14.6301 24.9792C17.1441 24.9792 19.2839 24.0824 20.9689 22.2885L24.9273 25.7674C22.5469 28.8659 19.2839 30.2793 14.6301 30.2793Z" fill="currentColor"></path><path d="M42.2052 8.56152H47.6079V29.7618H42.2052V26.6633C41.0819 28.8649 39.2096 30.3326 35.6257 30.3326C29.9021 30.3326 25.3284 25.3587 25.3284 19.2432C25.3284 13.1277 29.9021 8.15381 35.6257 8.15381C39.183 8.15381 41.0819 9.62153 42.2052 11.8231V8.56152ZM42.3657 19.2432C42.3657 15.9273 40.0922 13.1821 36.5084 13.1821C33.058 13.1821 30.8113 15.9544 30.8113 19.2432C30.8113 22.4504 33.058 25.3043 36.5084 25.3043C40.0656 25.3043 42.3657 22.532 42.3657 19.2432Z" fill="currentColor"></path><path d="M51.4326 0H56.8352V29.7348H51.4326V0Z" fill="currentColor"></path><path d="M59.2423 26.9355C59.2423 25.1961 60.6332 23.7283 62.5321 23.7283C64.4311 23.7283 65.7684 25.1961 65.7684 26.9355C65.7684 28.7294 64.4044 30.1971 62.5321 30.1971C60.6599 30.1971 59.2423 28.7294 59.2423 26.9355Z" fill="currentColor"></path><path d="M86.4431 26.3372C84.4371 28.7833 81.3881 30.3326 77.7773 30.3326C71.3315 30.3326 66.5975 25.3587 66.5975 19.2432C66.5975 13.1277 71.3315 8.15381 77.7773 8.15381C81.2543 8.15381 84.2767 9.62153 86.2826 11.9318L82.1103 15.438C81.0671 14.1334 79.703 13.1549 77.7773 13.1549C74.3271 13.1549 72.0804 15.9273 72.0804 19.216C72.0804 22.5048 74.3271 25.2771 77.7773 25.2771C79.8636 25.2771 81.3078 24.19 82.3776 22.7222L86.4431 26.3372Z" fill="currentColor"></path><path d="M86.8977 19.2432C86.8977 13.1277 91.6317 8.15381 98.0775 8.15381C104.523 8.15381 109.257 13.1277 109.257 19.2432C109.257 25.3587 104.523 30.3326 98.0775 30.3326C91.6317 30.3054 86.8977 25.3587 86.8977 19.2432ZM103.774 19.2432C103.774 15.9273 101.528 13.1821 98.0775 13.1821C94.6273 13.1549 92.3806 15.9273 92.3806 19.2432C92.3806 22.532 94.6273 25.3043 98.0775 25.3043C101.528 25.3043 103.774 22.532 103.774 19.2432Z" fill="currentColor"></path><path d="M145.792 16.7973V29.7349H140.39V18.1291C140.39 14.4599 138.678 12.8834 136.111 12.8834C133.703 12.8834 131.992 14.0793 131.992 18.1291V29.7349H126.589V18.1291C126.589 14.4599 124.85 12.8834 122.31 12.8834C119.902 12.8834 117.789 14.0793 117.789 18.1291V29.7349H112.387V8.53465H117.789V11.4701C118.913 9.18697 120.945 8.04541 124.075 8.04541C127.044 8.04541 129.531 9.51312 130.895 11.9865C132.259 9.45876 134.265 8.04541 137.902 8.04541C142.342 8.0726 145.792 11.4429 145.792 16.7973Z" fill="currentColor"></path></g></svg>